<svg xmlns="http://www.w3.org/2000/svg" version="1.1" xmlns:xlink="http://www.w3.org/1999/xlink" xmlns:svgjs="http://svgjs.dev/svgjs" width="12" height="8" viewBox="0 0 128 128"><g transform="matrix(0.4881516587677725,0,0,0.4881516587677725,32.87011541589585,12.333870967741937)"><svg viewBox="0 0 94 155" data-background-color="#000000" preserveAspectRatio="xMidYMid meet" height="211" width="128" xmlns="http://www.w3.org/2000/svg" xmlns:xlink="http://www.w3.org/1999/xlink"><g id="tight-bounds" transform="matrix(1,0,0,1,-0.16822429906541458,0.25)"><svg viewBox="0 0 94.33644859813084 154.5" height="154.5" width="94.33644859813084"><g><svg viewBox="0 0 94.33644859813084 154.5" height="154.5" width="94.33644859813084"><g><svg viewBox="0 0 94.33644859813084 154.5" height="154.5" width="94.33644859813084"><g id="textblocktransform"><svg viewBox="0 0 94.33644859813084 154.5" height="154.5" width="94.33644859813084" id="textblock"><g><svg viewBox="0 0 94.33644859813084 154.5" height="154.5" width="94.33644859813084"><g transform="matrix(1,0,0,1,0,0)"><svg width="94.33644859813084" viewBox="4.65 -32.1 19.6 32.1" height="154.5" data-palette-color="url(#51adf83e-d991-4b1b-bb73-f0f01153d448)"></svg></g></svg></g></svg></g></svg></g><g></g></svg></g><defs></defs><mask id="f76e16c2-f751-42fb-8e2b-310295faf81d"><g id="SvgjsG3265"><svg viewBox="0 0 94.33644859813084 154.5" height="154.5" width="94.33644859813084"><g><svg viewBox="0 0 94.33644859813084 154.5" height="154.5" width="94.33644859813084"><g><svg viewBox="0 0 94.33644859813084 154.5" height="154.5" width="94.33644859813084"><g id="SvgjsG3264"><svg viewBox="0 0 94.33644859813084 154.5" height="154.5" width="94.33644859813084" id="SvgjsSvg3263"><g><svg viewBox="0 0 94.33644859813084 154.5" height="154.5" width="94.33644859813084"><g transform="matrix(1,0,0,1,0,0)"><svg width="94.33644859813084" viewBox="4.65 -32.1 19.6 32.1" height="154.5" data-palette-color="url(#51adf83e-d991-4b1b-bb73-f0f01153d448)"><path d="M14.45-32.1Q19.15-32.1 21.7-29.68 24.25-27.25 24.25-22.7L24.25-22.7Q24.25-17.35 21.08-14.3 17.9-11.25 12.3-11.25L12.3-11.25 8.5-11.25 8.5-10 8.7 0 4.65 0 4.9-9.65 4.65-32.05 14.45-32.1ZM13.8-14.5Q16.9-15 18.53-17 20.15-19 20.15-22.35L20.15-22.35Q20.15-28.55 13.55-28.8L13.55-28.8 8.7-28.65 8.55-14.6 13.8-14.5Z" opacity="1" transform="matrix(1,0,0,1,0,0)" fill="white" class="wordmark-text-0" id="SvgjsPath3262"></path></svg></g></svg></g></svg></g></svg></g><g></g></svg></g><defs><mask></mask></defs></svg><rect width="94.33644859813084" height="154.5" fill="black" stroke="none" visibility="hidden"></rect></g></mask><linearGradient x1="0" x2="1" y1="0.5" y2="0.5" id="51adf83e-d991-4b1b-bb73-f0f01153d448"><stop stop-color="#fff72e" offset="0"></stop><stop stop-color="#deae29" offset="1"></stop></linearGradient><rect width="94.33644859813084" height="154.5" fill="url(#51adf83e-d991-4b1b-bb73-f0f01153d448)" mask="url(#f76e16c2-f751-42fb-8e2b-310295faf81d)" data-fill-palette-color="primary"></rect></svg><rect width="94.33644859813084" height="154.5" fill="none" stroke="none" visibility="hidden"></rect></g></svg></g></svg>