<?xml version="1.0" encoding="UTF-8" standalone="no"?>
<svg xmlns="http://www.w3.org/2000/svg" 
version="1.1" xmlns:xlink="http://www.w3.org/1999/xlink" 
xmlns:svgjs="http://svgjs.dev/svgjs" width="308" height="304" viewBox="0 0 2000 833" >

<g transform="matrix(1,0,0,1,-1.2121212121212466,-1.0655512626348127)">
<svg viewBox="0 0 396 165" data-background-color="#000000" 
preserveAspectRatio="xMidYMid meet" height="833" width="2000" 
xmlns="http://www.w3.org/2000/svg" xmlns:xlink="http://www.w3.org/1999/xlink">

<g id="tight-bounds" transform="matrix(1,0,0,1,0.2400000000000091,0.21106357543186505)">
<svg viewBox="0 0 395.52 164.57787284913627" height="164.57787284913627" width="395.52">
<rect width="395.52" height="164.57787284913627" 
fill="url(#7a7b3e6b-7335-4c57-87b5-286750cc6bd8)" 
mask="url(#26272e63-c80c-44b8-bee8-77df4f500bd2)" 
data-fill-palette-color="tertiary">
</rect>

<g>
<svg viewBox="0 0 395.52 164.57787284913627" 
height="164.57787284913627" width="395.52">
<g>
<svg viewBox="0 0 395.52 164.57787284913627" 
height="164.57787284913627" width="395.52">
<g id="textblocktransform"><svg viewBox="0 0 395.52 164.57787284913627" 
height="164.57787284913627" width="395.52" id="textblock">

<g>
<rect width="395.52" height="119.75084452975048" fill="none" 
stroke-width="9.018103199999999" 
stroke="url(#7a7b3e6b-7335-4c57-87b5-286750cc6bd8)" 
data-fill-palette-color="none" 
data-stroke-palette-color="tertiary">
</rect>

<rect width="395.52" height="44.827028319385796" 
y="119.75084452975048" fill="url(#7a7b3e6b-7335-4c57-87b5-286750cc6bd8)" 
data-fill-palette-color="tertiary">
</rect>
</g>

<g>
<svg viewBox="0 0 395.52 119.75084452975048" 
height="119.75084452975048" width="395.52">
<g transform="matrix(1,0,0,1,23.607599999999998,23.607599999999998)">
<svg width="348.3048" viewBox="4.65 -32.1 156.29 32.550000000000004" 
height="72.53564452975048" 
data-palette-color="url(#2b2b89a0-6b9d-447e-9ffe-3ab53ae69378)">
</svg>
</g>
</svg>
</g>
</svg>
</g>
</svg>
</g>

<g>
</g>
</svg>
</g>
<defs>
</defs>
<mask id="cb2572a7-729b-4d03-8fb3-952201692acf">
<g id="SvgjsG1003">
<svg viewBox="0 0 395.52 164.57787284913627" 
height="164.57787284913627" width="395.52">

<g
><svg viewBox="0 0 395.52 164.57787284913627" 
height="164.57787284913627" 
width="395.52">
<g>
<svg viewBox="0 0 395.52 164.57787284913627" 
height="164.57787284913627" width="395.52">
<g id="SvgjsG1002">
<svg viewBox="0 0 395.52 164.57787284913627" 
height="164.57787284913627" 
width="395.52" id="SvgjsSvg1001">
<g>
<rect width="395.52" height="119.75084452975048" 
fill="black" stroke-width="9.018103199999999" 
stroke="url(#7a7b3e6b-7335-4c57-87b5-286750cc6bd8)" 
data-stroke-palette-color="tertiary">
</rect>
<rect width="395.52" height="44.827028319385796" y="119.75084452975048" fill="black">
</rect>
</g>

<g><svg viewBox="0 0 395.52 119.75084452975048" height="119.75084452975048" width="395.52"><g transform="matrix(1,0,0,1,23.607599999999998,23.607599999999998)">
<svg width="348.3048" viewBox="4.65 -32.1 156.29 32.550000000000004" height="72.53564452975048" data-palette-color="url(#2b2b89a0-6b9d-447e-9ffe-3ab53ae69378)">
<path d="M14.45-32.1Q19.15-32.1 21.7-29.68 24.25-27.25 24.25-22.7L24.25-22.7Q24.25-17.35 21.08-14.3 17.9-11.25 12.3-11.25L12.3-11.25 8.5-11.25 8.5-10 8.7 0 4.65 0 4.9-9.65 4.65-32.05 14.45-32.1ZM13.8-14.5Q16.9-15 18.53-17 20.15-19 20.15-22.35L20.15-22.35Q20.15-28.55 13.55-28.8L13.55-28.8 8.7-28.65 8.55-14.6 13.8-14.5ZM38.5-21.9L33.95-21.85 33.9-13.65 38.2-13.6 42.6-13.75 42.85-13.4 42.6-10.55 37.85-10.6 33.85-10.55 33.85-7.8 33.95 0 30.25 0 30.35-7.5 30.25-24.9 44.75-24.9 44.95-24.6 44.65-21.7 38.5-21.9ZM69.14-24.9L69-12.25 69-8.65Q69.05-4.4 66.42-2.05 63.8 0.3 58.89 0.3L58.89 0.3Q54.05 0.3 51.49-2.02 48.95-4.35 49.05-8.65L49.05-8.65 49.09-12.45 49.05-24.9 52.8-24.9 52.59-9.25Q52.55-6.1 54.17-4.5 55.8-2.9 59.05-2.9L59.05-2.9Q62.25-2.9 63.89-4.5 65.55-6.1 65.5-9.25L65.5-9.25 65.34-24.9 69.14-24.9ZM95.99-24.95L85.39-13.25Q90.69-6.75 96.64-0.85L96.64-0.85 96.54-0.3Q94.99 0.2 92.94 0.45L92.94 0.45 92.34 0.2Q85.94-7 81.29-13L81.29-13 81.29-13.3 89.89-22.7 91.54-24.9 95.99-24.95ZM81.04-24.9L80.89-7.8 80.99 0 77.29 0 77.44-7.5 77.29-24.9 81.04-24.9ZM112.44-24.9L121.19 0 117.44 0 116.84-2.7 115.54-6.4 109.59-6.45 104.29-6.4 102.94-2.9 102.24 0 98.54 0 108.14-24.9 112.44-24.9ZM109.89-9.4L114.49-9.45 110.34-21.25 110.04-21.25 105.49-9.45 109.89-9.4ZM148.19-25L148.04-7.45 148.09 0 144.09 0 130.99-19 130.74-19 130.69-8.3 130.79 0 127.39 0 127.54-7.35 127.44-24.9 131.39-24.9 144.49-5.9 144.84-5.9 144.74-24.75 148.19-25ZM160.94-24.9L160.79-7.8 160.89 0 157.19 0 157.34-7.5 157.19-24.9 160.94-24.9Z" opacity="1" transform="matrix(1,0,0,1,0,0)" fill="white" class="wordmark-text-0" id="SvgjsPath1000">
</path>
</svg>
</g>
</svg>
</g>
</svg>
</g>
</svg>
</g><g></g></svg></g><defs><mask></mask></defs></svg>
<rect width="395.52" height="164.57787284913627" fill="black" stroke="none" visibility="hidden">
</rect></g></mask><linearGradient x1="0" x2="1" y1="0.5" y2="0.5" id="2b2b89a0-6b9d-447e-9ffe-3ab53ae69378">
<stop stop-color="#fff72e" offset="0"></stop><stop stop-color="#deae29" offset="1">
</stop></linearGradient><rect width="395.52" height="164.57787284913627" 
fill="url(#2b2b89a0-6b9d-447e-9ffe-3ab53ae69378)" 
mask="url(#cb2572a7-729b-4d03-8fb3-952201692acf)" 
data-fill-palette-color="primary"></rect><mask id="26272e63-c80c-44b8-bee8-77df4f500bd2">
<g id="SvgjsG1026">
<svg viewBox="0 0 395.52 164.57787284913627" height="164.57787284913627" width="395.52">
<g>
<svg viewBox="0 0 395.52 164.57787284913627" height="164.57787284913627" width="395.52">
<g><svg viewBox="0 0 395.52 164.57787284913627" height="164.57787284913627" width="395.52">
<g id="SvgjsG1025"><svg viewBox="0 0 395.52 164.57787284913627" height="164.57787284913627" width="395.52" id="SvgjsSvg1024">
<g><rect width="395.52" height="119.75084452975048" fill="black" 
stroke-width="9.018103199999999" stroke="url(#7a7b3e6b-7335-4c57-87b5-286750cc6bd8)" 
data-stroke-palette-color="tertiary">
</rect>

<rect width="395.52" height="44.827028319385796" y="119.75084452975048" fill="white">
</rect>
</g>

<g><svg viewBox="0 0 395.52 119.75084452975048" height="119.75084452975048" width="395.52">
<g transform="matrix(1,0,0,1,23.607599999999998,23.607599999999998)">
<svg width="348.3048" viewBox="4.65 -32.1 156.29 32.550000000000004" height="72.53564452975048" data-palette-color="url(#2b2b89a0-6b9d-447e-9ffe-3ab53ae69378)">
</svg></g></svg></g></svg></g></svg></g><g></g></svg></g><defs><mask></mask></defs><mask><g id="SvgjsG1023">
<svg viewBox="0 0 395.52 164.57787284913627" height="164.57787284913627" width="395.52"><g><svg viewBox="0 0 395.52 164.57787284913627" height="164.57787284913627" width="395.52"><g><svg viewBox="0 0 395.52 164.57787284913627" height="164.57787284913627" width="395.52"><g id="SvgjsG1022"><svg viewBox="0 0 395.52 164.57787284913627" height="164.57787284913627" width="395.52" id="SvgjsSvg1021"><g><rect width="395.52" height="119.75084452975048" fill="black" stroke-width="9.018103199999999" stroke="url(#7a7b3e6b-7335-4c57-87b5-286750cc6bd8)" data-stroke-palette-color="tertiary"></rect><rect width="395.52" height="44.827028319385796" y="119.75084452975048" fill="black"></rect></g><g><svg viewBox="0 0 395.52 119.75084452975048" height="119.75084452975048" width="395.52"><g transform="matrix(1,0,0,1,23.607599999999998,23.607599999999998)"><svg width="348.3048" viewBox="4.65 -32.1 156.29 32.550000000000004" height="72.53564452975048" data-palette-color="url(#2b2b89a0-6b9d-447e-9ffe-3ab53ae69378)"><path d="M14.45-32.1Q19.15-32.1 21.7-29.68 24.25-27.25 24.25-22.7L24.25-22.7Q24.25-17.35 21.08-14.3 17.9-11.25 12.3-11.25L12.3-11.25 8.5-11.25 8.5-10 8.7 0 4.65 0 4.9-9.65 4.65-32.05 14.45-32.1ZM13.8-14.5Q16.9-15 18.53-17 20.15-19 20.15-22.35L20.15-22.35Q20.15-28.55 13.55-28.8L13.55-28.8 8.7-28.65 8.55-14.6 13.8-14.5ZM38.5-21.9L33.95-21.85 33.9-13.65 38.2-13.6 42.6-13.75 42.85-13.4 42.6-10.55 37.85-10.6 33.85-10.55 33.85-7.8 33.95 0 30.25 0 30.35-7.5 30.25-24.9 44.75-24.9 44.95-24.6 44.65-21.7 38.5-21.9ZM69.14-24.9L69-12.25 69-8.65Q69.05-4.4 66.42-2.05 63.8 0.3 58.89 0.3L58.89 0.3Q54.05 0.3 51.49-2.02 48.95-4.35 49.05-8.65L49.05-8.65 49.09-12.45 49.05-24.9 52.8-24.9 52.59-9.25Q52.55-6.1 54.17-4.5 55.8-2.9 59.05-2.9L59.05-2.9Q62.25-2.9 63.89-4.5 65.55-6.1 65.5-9.25L65.5-9.25 65.34-24.9 69.14-24.9ZM95.99-24.95L85.39-13.25Q90.69-6.75 96.64-0.85L96.64-0.85 96.54-0.3Q94.99 0.2 92.94 0.45L92.94 0.45 92.34 0.2Q85.94-7 81.29-13L81.29-13 81.29-13.3 89.89-22.7 91.54-24.9 95.99-24.95ZM81.04-24.9L80.89-7.8 80.99 0 77.29 0 77.44-7.5 77.29-24.9 81.04-24.9ZM112.44-24.9L121.19 0 117.44 0 116.84-2.7 115.54-6.4 109.59-6.45 104.29-6.4 102.94-2.9 102.24 0 98.54 0 108.14-24.9 112.44-24.9ZM109.89-9.4L114.49-9.45 110.34-21.25 110.04-21.25 105.49-9.45 109.89-9.4ZM148.19-25L148.04-7.45 148.09 0 144.09 0 130.99-19 130.74-19 130.69-8.3 130.79 0 127.39 0 127.54-7.35 127.44-24.9 131.39-24.9 144.49-5.9 144.84-5.9 144.74-24.75 148.19-25ZM160.94-24.9L160.79-7.8 160.89 0 157.19 0 157.34-7.5 157.19-24.9 160.94-24.9Z" opacity="1" transform="matrix(1,0,0,1,0,0)" fill="black" class="wordmark-text-0" id="SvgjsPath1020"></path></svg></g></svg></g></svg></g></svg></g><g></g></svg></g><defs><mask></mask></defs></svg><rect width="395.52" height="164.57787284913627" fill="black" stroke="none" visibility="hidden"></rect></g></mask></svg><rect width="395.52" height="164.57787284913627" fill="black" stroke="none" visibility="hidden"></rect></g></mask><linearGradient x1="0" x2="1" y1="0.5" y2="0.5" id="7a7b3e6b-7335-4c57-87b5-286750cc6bd8"><stop stop-color="#fff72e" offset="0"></stop><stop stop-color="#deae29" offset="1"></stop></linearGradient></svg><rect width="395.52" height="164.57787284913627" fill="none" stroke="none" visibility="hidden"></rect></g></svg></g></svg>